<?xml version="1.0" encoding="utf-8"?>
<!-- Generator: Adobe Illustrator 23.0.1, SVG Export Plug-In . SVG Version: 6.00 Build 0)  -->
<svg version="1.1" id="Layer_1" xmlns="http://www.w3.org/2000/svg" xmlns:xlink="http://www.w3.org/1999/xlink" x="0px" y="0px"
	 viewBox="0 0 185 45" style="enable-background:new 0 0 185 45;" xml:space="preserve">
<style type="text/css">
	.st0{fill:#7C06E4;}
</style>
<g>
	<path class="st0" d="M48.03,3.16c0,0,10.97,0,10.97,0c3.2,7.68,6.44,15.34,9.59,23.03c0.37,0.9,0.75,1.8,1.19,2.68
		c0.13,0.27,0.28,0.55,0.51,0.75c1.56,1.34,3.99-2.62,4.37-3.59c0,0-6.23,15.79-6.23,15.79S55.08,9.44,54.9,9.01
		C54.01,6.86,50.65,3.16,48.03,3.16z"/>
	<path class="st0" d="M60.59,41.82H46.53c0,0,4.98,0.82,6.83-12.2C53.36,29.62,53.57,41.82,60.59,41.82z"/>
	<path class="st0" d="M77.27,41.82c0,0,4.19,0.21,4.19-6.26V3.16h10.87c0,0-5.23,1.03-5.13,5.13l-0.1,27.59c0,0,0.62,5.95,5.23,5.95
		H77.27z"/>
	<path class="st0" d="M92.77,23.75c0.08-0.15,0.19-0.29,0.31-0.41c0.75-0.74,1.66-1.14,2.63-1.51c1.06-0.4,2.3-0.44,3.39-0.16
		c1.55,0.4,1.97,2.36,3.48,2.78c1.12,0.31,2.23-0.46,3.04-1.15c1.16-1,2.27-2.16,3.74-2.73c0.89-0.35,2-0.33,2.87,0.08
		c1.22,0.57,1.27,1.77,1.75,2.89c0.52,1.18,1.5,1.76,2.8,1.55c0.78-0.13,1.49-0.52,2.14-0.97c1.83-1.27,3.93-3.81,6.37-2.36
		c1.04,0.62,1.54,1.79,2.49,2.52c1.47,1.13,3.38,1.31,5.15,0.89c0.9-0.21,1.78-0.57,2.59-1.02c0.63-0.35,1.63-1.33,2.39-0.84
		c0.28,0.18,0.41,0.54,0.4,0.88c-0.05,1.91-2.15,2.62-3.64,3.15c-2.7,0.97-5.76,2.07-8.61,1.02c-1.43-0.53-2.7-1.47-4.19-1.84
		c-1.52-0.38-3.19-0.14-4.56,0.59c-2.32,1.25-4.53,2.51-7.01,0.77c-1.48-1.04-2.54-3.39-4.72-2.51c-0.63,0.25-1.15,0.71-1.62,1.19
		c-1.22,1.26-2.88,2.64-4.72,2.69c-1.43,0.04-2.51-0.78-3.02-2.08c-0.29-0.73-0.66-1.51-1.25-2.05c-0.33-0.3-0.76-0.5-1.2-0.46
		c-0.44,0.05-1.02,0.22-1.08-0.45C92.65,24.05,92.69,23.89,92.77,23.75z"/>
</g>
</svg>
